<svg width="24" height="25" viewBox="0 0 24 25" fill="none" xmlns="http://www.w3.org/2000/svg">
<path d="M19.3259 6.44434C20 7.45324 20 8.8577 20 11.6666C20 14.4756 20 15.88 19.3259 16.8889C19.034 17.3257 18.659 17.7007 18.2223 17.9925C17.3409 18.5814 16.1577 18.6559 14 18.6653V18.6666L12.8944 20.8778C12.5259 21.6148 11.4741 21.6148 11.1056 20.8778L10 18.6666V18.6653C7.8423 18.6559 6.65907 18.5814 5.77772 17.9925C5.34096 17.7007 4.96596 17.3257 4.67412 16.8889C4 15.88 4 14.4756 4 11.6666C4 8.8577 4 7.45324 4.67412 6.44434C4.96596 6.00758 5.34096 5.63258 5.77772 5.34075C6.78661 4.66663 8.19108 4.66663 11 4.66663H13C15.8089 4.66663 17.2134 4.66663 18.2223 5.34075C18.659 5.63258 19.034 6.00758 19.3259 6.44434Z" stroke="white" stroke-width="2" stroke-linecap="round" stroke-linejoin="round"/>
<path d="M9 9.66663L15 9.66663" stroke="white" stroke-width="2" stroke-linecap="round" stroke-linejoin="round"/>
<path d="M9 13.6666H12" stroke="white" stroke-width="2" stroke-linecap="round" stroke-linejoin="round"/>
</svg>
